<?xml version="1.0" standalone="no"?>
<!DOCTYPE svg PUBLIC "-//W3C//DTD SVG 20010904//EN"
 "http://www.w3.org/TR/2001/REC-SVG-20010904/DTD/svg10.dtd">
<svg version="1.0" xmlns="http://www.w3.org/2000/svg"
 width="640.000000pt" height="640.000000pt" viewBox="0 0 640.000000 640.000000"
 preserveAspectRatio="xMidYMid meet">
<metadata>
Created by potrace 1.14, written by Peter Selinger 2001-2017
</metadata>
<g transform="translate(0.000000,640.000000) scale(0.100000,-0.100000)"
fill="#000000" stroke="none">
<path d="M0 3200 l0 -3200 3200 0 3200 0 0 3200 0 3200 -3200 0 -3200 0 0
-3200z m3491 1924 c522 -84 962 -350 1284 -775 217 -287 335 -615 366 -1015
12 -158 -2 -456 -23 -481 -5 -6 -8 -22 -6 -35 2 -14 -2 -22 -9 -21 -7 2 -10
-4 -7 -12 10 -26 -26 -177 -72 -300 -102 -272 -240 -483 -458 -700 -330 -329
-788 -534 -1226 -550 -130 -5 -104 3 110 30 69 9 129 20 134 25 13 13 -6 13
-78 -1 -32 -6 -60 -8 -63 -6 -2 3 29 10 69 17 235 38 479 129 678 253 76 48
199 137 249 181 138 121 296 307 347 407 13 26 28 50 33 54 9 5 118 221 154
305 36 85 78 250 103 407 18 115 30 503 14 487 -5 -5 -12 -27 -15 -49 -3 -28
-2 -35 5 -25 17 27 -1 -256 -26 -410 -31 -183 -115 -430 -216 -633 -144 -289
-436 -579 -758 -751 -94 -51 -133 -62 -55 -16 27 16 54 35 60 42 6 7 53 42
105 77 154 105 287 221 369 326 87 109 88 124 5 44 -93 -89 -133 -119 -84 -64
19 22 38 42 41 45 14 13 110 143 157 211 121 180 216 411 261 634 30 151 38
226 40 385 5 429 -125 808 -403 1170 -124 162 -377 365 -587 471 -77 38 -114
53 -279 111 -30 10 -120 32 -200 48 -309 63 -657 30 -963 -91 -253 -100 -453
-235 -667 -449 -160 -160 -321 -427 -400 -666 -21 -65 -39 -114 -39 -108 -1
18 45 165 73 233 30 74 29 71 16 71 -5 0 -12 -12 -16 -27 -4 -16 -12 -38 -20
-49 -14 -23 -61 -166 -93 -284 -17 -64 -40 -209 -55 -355 -2 -22 -2 7 0 65 2
59 14 160 28 230 24 119 34 153 85 294 11 33 21 66 20 75 -1 18 -20 -23 -55
-114 -13 -33 -23 -53 -23 -45 -1 17 21 77 68 188 171 406 513 772 908 971 184
92 460 170 673 191 119 11 319 4 441 -16z m-2057 -1483 c-4 -17 -9 -30 -11
-27 -3 2 -2 19 2 36 9 41 17 33 9 -9z m1993 -31 c69 -24 96 -48 128 -114 23
-48 50 -184 39 -196 -11 -10 -34 35 -34 67 0 21 -5 33 -14 33 -9 0 -15 -19
-18 -67 -6 -82 -32 -136 -96 -206 l-47 -50 -6 99 c-6 103 -34 204 -56 204 -17
0 -16 -15 2 -65 23 -64 19 -91 -21 -135 -45 -50 -64 -52 -64 -6 0 50 -25 100
-71 145 l-41 39 7 66 7 66 53 -6 53 -7 31 49 c16 27 27 52 22 57 -4 4 -47 -2
-95 -13 -114 -26 -125 -26 -101 0 52 57 216 78 322 40z m-2010 -42 c-3 -7 -5
-2 -5 12 0 14 2 19 5 13 2 -7 2 -19 0 -25z m1827 -42 c-7 -17 -49 -22 -59 -6
-3 5 9 13 27 18 39 11 40 10 32 -12z m-1837 -8 c-3 -8 -6 -5 -6 6 -1 11 2 17
5 13 3 -3 4 -12 1 -19z m1674 -7 c28 -29 38 -64 20 -75 -5 -3 -28 1 -51 9 -55
19 -123 19 -160 0 -26 -14 -30 -14 -30 -1 0 14 47 65 60 66 3 1 28 7 55 15 70
19 73 19 106 -14z m-1684 -63 c-3 -7 -5 -2 -5 12 0 14 2 19 5 13 2 -7 2 -19 0
-25z m1667 -38 c16 -6 26 -17 26 -29 0 -17 -3 -18 -40 -5 -22 8 -64 17 -95 20
-30 4 -52 11 -49 15 7 12 127 11 158 -1z m-927 -547 c57 -121 63 -150 26 -136
-7 3 -13 11 -13 19 0 22 -115 18 -165 -6 -22 -10 -41 -15 -43 -10 -2 4 21 57
52 117 41 82 52 113 45 126 -8 14 -6 17 14 17 21 0 32 -16 84 -127z m301 105
c3 -14 -4 -18 -25 -19 -15 -1 -35 -2 -43 -3 -12 -1 -16 -22 -18 -108 -2 -99
-4 -108 -22 -108 -18 0 -20 9 -22 108 l-3 107 -42 3 c-39 3 -55 17 -37 35 3 3
51 5 107 4 88 -2 102 -4 105 -19z m585 2 c-4 -8 -9 -66 -11 -127 -3 -104 -5
-113 -23 -113 -17 0 -19 8 -19 82 l0 82 -43 -49 -43 -49 -42 53 -42 53 0 -84
c0 -89 -3 -100 -26 -91 -11 4 -14 30 -14 113 0 62 -4 111 -10 115 -18 11 -11
25 13 25 16 0 35 -15 60 -49 60 -78 57 -78 115 -8 33 39 60 63 72 63 15 0 18
-4 13 -16z m265 -29 l32 -36 33 36 c33 38 67 57 67 38 0 -6 -16 -33 -35 -59
-19 -26 -35 -52 -35 -56 0 -5 21 -35 45 -68 24 -32 42 -62 40 -66 -11 -18 -46
5 -77 51 -18 27 -35 48 -38 49 -3 0 -21 -23 -40 -49 -19 -28 -45 -51 -57 -54
-33 -6 -29 7 22 73 25 32 45 62 45 65 0 4 -16 29 -35 55 -19 26 -35 53 -35 59
0 19 34 0 68 -38z m1034 -53 l3 -87 61 92 c43 65 68 93 83 94 29 2 27 -6 -18
-69 l-40 -54 31 -47 c16 -25 39 -49 50 -52 11 -4 18 -14 16 -23 -2 -10 -7 -16
-11 -14 -4 1 -16 2 -27 2 -14 0 -30 15 -48 45 -15 25 -29 45 -33 45 -3 0 -19
-20 -37 -45 -20 -28 -39 -45 -52 -45 -19 0 -20 6 -20 124 0 90 3 126 13 129
22 8 26 -6 29 -95z m-1655 -12 c60 -70 -7 -168 -105 -153 -81 13 -109 101 -52
159 28 28 35 30 82 26 40 -4 57 -12 75 -32z m471 -59 c3 -82 2 -87 -18 -87
-18 0 -20 6 -20 83 0 46 3 87 7 91 19 19 28 -8 31 -87z m402 54 c0 -26 4 -29
42 -34 53 -7 58 -4 58 39 0 24 5 34 15 34 12 0 15 -17 15 -93 0 -77 -3 -94
-15 -94 -11 0 -15 11 -15 39 l0 38 -50 0 -50 0 0 -35 c0 -28 -4 -35 -20 -35
-18 0 -20 7 -20 84 0 58 4 86 13 89 19 7 27 -2 27 -32z m344 -50 c25 -50 46
-92 46 -94 0 -3 -9 -3 -20 0 -11 3 -20 9 -20 14 0 14 -63 11 -108 -5 -25 -9
-44 -11 -47 -5 -4 5 12 43 35 84 23 41 38 79 35 85 -3 5 3 10 14 10 14 0 31
-23 65 -89z m139 27 c12 -32 24 -58 28 -58 10 0 21 68 14 90 -8 26 15 37 32
14 8 -10 19 -38 25 -61 6 -24 14 -43 17 -43 4 0 15 25 25 56 16 51 38 76 53
60 4 -4 -6 -44 -22 -91 -24 -69 -33 -84 -53 -88 -19 -4 -26 1 -36 24 -13 31
-26 29 -26 -3 0 -10 -4 -19 -10 -19 -43 -6 -45 -3 -72 71 -32 89 -34 113 -12
108 10 -2 25 -26 37 -60z m-2283 -868 c17 -22 29 -40 27 -40 -3 0 -20 18 -37
40 -17 22 -29 40 -27 40 3 0 20 -18 37 -40z m91 -107 c13 -16 12 -17 -3 -4
-10 7 -18 15 -18 17 0 8 8 3 21 -13z m866 -539 c-3 -3 -12 -4 -19 -1 -8 3 -5
6 6 6 11 1 17 -2 13 -5z m716 -61 c-7 -2 -21 -2 -30 0 -10 3 -4 5 12 5 17 0
24 -2 18 -5z m-125 -10 c-10 -2 -28 -2 -40 0 -13 2 -5 4 17 4 22 1 32 -1 23
-4z"/>
<path d="M3605 5074 c33 -7 67 -13 75 -12 23 1 -82 26 -110 26 -14 0 2 -6 35
-14z"/>
<path d="M3715 5050 c11 -5 27 -9 35 -9 9 0 8 4 -5 9 -11 5 -27 9 -35 9 -9 0
-8 -4 5 -9z"/>
<path d="M3775 5030 c3 -5 11 -10 16 -10 6 0 7 5 4 10 -3 6 -11 10 -16 10 -6
0 -7 -4 -4 -10z"/>
<path d="M4367 4699 c7 -7 15 -10 18 -7 3 3 -2 9 -12 12 -14 6 -15 5 -6 -5z"/>
<path d="M4420 4655 c13 -14 26 -25 28 -25 3 0 -5 11 -18 25 -13 14 -26 25
-28 25 -3 0 5 -11 18 -25z"/>
<path d="M4800 4204 c0 -6 7 -19 16 -30 14 -18 14 -18 3 6 -14 31 -19 36 -19
24z"/>
<path d="M4830 4143 c0 -6 9 -21 21 -34 l20 -24 -17 30 c-24 39 -24 40 -24 28z"/>
<path d="M4880 4055 c0 -5 5 -17 10 -25 5 -8 10 -10 10 -5 0 6 -5 17 -10 25
-5 8 -10 11 -10 5z"/>
<path d="M5082 3430 c0 -14 2 -19 5 -12 2 6 2 18 0 25 -3 6 -5 1 -5 -13z"/>
<path d="M5071 2704 c0 -11 3 -14 6 -6 3 7 2 16 -1 19 -3 4 -6 -2 -5 -13z"/>
<path d="M4800 2110 c-6 -11 -8 -20 -6 -20 3 0 10 9 16 20 6 11 8 20 6 20 -3
0 -10 -9 -16 -20z"/>
<path d="M4733 2018 c-77 -102 -261 -285 -362 -362 -125 -94 -133 -100 -101
-85 62 30 243 182 335 281 66 72 191 228 181 228 -3 0 -26 -28 -53 -62z"/>
<path d="M3708 1323 c7 -3 16 -2 19 1 4 3 -2 6 -13 5 -11 0 -14 -3 -6 -6z"/>
<path d="M3658 1313 c7 -3 16 -2 19 1 4 3 -2 6 -13 5 -11 0 -14 -3 -6 -6z"/>
<path d="M3606 1301 c-4 -5 3 -7 14 -4 23 6 26 13 6 13 -8 0 -17 -4 -20 -9z"/>
<path d="M2042 2855 c-12 -25 -22 -48 -22 -50 0 -7 86 -6 92 1 5 4 -39 94 -46
94 -1 0 -12 -20 -24 -45z"/>
<path d="M2527 2849 c-29 -41 2 -89 58 -89 55 0 85 58 49 94 -23 24 -89 21
-107 -5z"/>
<path d="M3808 2810 c-16 -29 -16 -30 2 -30 39 0 50 10 38 36 -14 31 -19 30
-40 -6z"/>
</g>
</svg>
