<?xml version="1.0" standalone="no"?>
<!DOCTYPE svg PUBLIC "-//W3C//DTD SVG 20010904//EN"
 "http://www.w3.org/TR/2001/REC-SVG-20010904/DTD/svg10.dtd">
<svg version="1.0" xmlns="http://www.w3.org/2000/svg"
 width="389.000000pt" height="389.000000pt" viewBox="0 0 389.000000 389.000000"
 preserveAspectRatio="xMidYMid meet">
<metadata>
Created by potrace 1.14, written by Peter Selinger 2001-2017
</metadata>
<g transform="translate(0.000000,389.000000) scale(0.100000,-0.100000)"
fill="#000000" stroke="none">
<path d="M1789 3886 c-2 -2 -35 -6 -73 -10 -139 -13 -315 -57 -476 -119 -248
-95 -469 -239 -666 -432 -168 -166 -346 -459 -433 -714 -33 -95 -36 -127 -8
-69 23 46 21 34 -13 -98 -32 -123 -60 -328 -59 -434 0 -87 14 -51 23 60 4 47
11 114 16 150 13 81 71 332 76 327 2 -2 -7 -53 -21 -113 -40 -180 -67 -422
-44 -408 4 2 7 23 7 46 3 256 102 581 260 858 88 155 282 369 452 501 216 167
480 290 725 337 223 43 241 45 407 39 467 -17 857 -183 1213 -516 158 -148
354 -455 428 -671 71 -207 97 -361 102 -590 9 -448 -125 -858 -390 -1195 -35
-44 -74 -91 -87 -105 -13 -14 -32 -37 -43 -50 l-20 -25 20 15 c11 7 56 48 99
89 50 48 73 65 61 46 -72 -120 -264 -301 -436 -411 -100 -64 -117 -76 -99 -69
38 17 -41 -37 -92 -61 -32 -15 -58 -31 -58 -36 0 -4 8 -4 18 1 9 6 52 26 95
45 82 38 277 162 337 216 19 17 55 48 79 68 116 97 323 364 388 502 73 154 95
208 131 320 55 168 68 223 87 370 10 69 20 127 22 130 13 12 -9 -190 -32 -305
-29 -142 -96 -353 -130 -405 -5 -8 -27 -49 -48 -90 -39 -77 -108 -197 -124
-215 -5 -5 -12 -17 -15 -25 -12 -33 -140 -180 -233 -268 -214 -205 -445 -343
-730 -435 -133 -43 -232 -64 -430 -88 l-150 -18 135 3 c85 3 118 1 90 -4 -39
-7 -36 -7 20 -4 36 2 76 6 90 9 14 3 41 8 60 11 178 33 405 116 575 212 96 54
249 159 288 197 15 15 27 25 27 22 0 -7 170 161 218 216 132 150 262 374 342
587 83 224 114 405 115 665 0 247 -24 402 -95 615 -60 178 -185 428 -255 506
-5 6 -17 22 -25 34 -8 13 -26 37 -40 54 -14 17 -32 39 -40 50 -33 42 -169 176
-230 227 -36 30 -67 56 -70 59 -17 17 -168 115 -240 155 -163 90 -429 188
-570 209 -19 3 -62 11 -95 17 -56 10 -427 23 -436 15z m2040 -1896 c-1 -50 -5
-92 -8 -95 -4 -2 -6 35 -4 83 1 48 3 90 3 95 0 4 2 7 6 7 3 0 4 -41 3 -90z"/>
<path d="M1943 2401 c-17 -4 -52 -20 -77 -35 -89 -52 -70 -63 57 -34 53 12 99
19 102 16 9 -8 -18 -59 -43 -81 -17 -15 -28 -17 -69 -9 l-49 9 -1 -36 c-1 -20
-3 -52 -4 -71 -3 -30 4 -42 43 -82 46 -46 68 -94 68 -150 0 -38 16 -35 62 12
43 46 48 83 23 155 -9 24 -11 43 -5 49 20 20 61 -137 59 -224 -1 -33 1 -63 5
-67 11 -11 91 83 119 141 17 34 29 78 31 113 5 65 26 87 26 26 0 -37 14 -63
33 -63 12 0 0 95 -19 160 -20 69 -81 133 -146 154 -62 20 -169 29 -215 17z"/>
<path d="M1933 2310 c-32 -13 -28 -30 6 -30 24 0 41 14 41 36 0 6 -23 4 -47
-6z"/>
<path d="M1680 2290 c-50 -17 -100 -57 -100 -81 0 -12 16 -12 40 1 29 16 91
17 150 3 73 -16 70 -17 70 13 0 32 -50 84 -82 84 -13 -1 -48 -9 -78 -20z"/>
<path d="M1637 2188 c-40 -15 -23 -28 37 -28 30 0 73 -7 96 -15 53 -19 50 -19
50 9 0 20 -7 25 -57 35 -66 13 -88 13 -126 -1z"/>
<path d="M767 1741 c3 -12 -16 -64 -46 -127 -28 -59 -51 -110 -51 -115 0 -16
32 -10 45 8 9 12 32 18 80 21 62 4 70 2 85 -18 12 -15 23 -21 35 -17 9 4 15
10 13 15 -2 4 -30 62 -62 130 -50 103 -63 122 -82 122 -17 0 -21 -4 -17 -19z
m53 -111 c11 -21 20 -43 20 -47 0 -4 -21 -9 -46 -11 -25 -1 -44 1 -42 5 2 5
12 27 22 51 10 23 20 42 22 42 2 0 13 -18 24 -40z"/>
<path d="M954 1745 c-10 -24 5 -35 46 -35 l39 0 3 -107 c3 -93 5 -108 21 -111
15 -3 17 7 17 107 l0 111 45 0 c41 0 45 2 45 25 l0 25 -105 0 c-83 0 -107 -3
-111 -15z"/>
<path d="M1474 1735 c12 -19 16 -50 16 -135 0 -101 2 -111 18 -108 14 3 17 17
20 87 l3 84 42 -48 43 -48 40 47 39 47 5 -83 c4 -69 8 -83 23 -86 15 -3 17 7
17 111 0 89 3 117 15 127 18 15 11 30 -15 30 -10 0 -40 -28 -71 -65 -29 -36
-53 -65 -54 -65 -1 0 -25 29 -54 65 -40 49 -59 65 -78 65 -25 0 -25 -1 -9 -25z"/>
<path d="M1950 1749 c0 -7 16 -34 35 -61 20 -27 33 -54 29 -61 -4 -7 -27 -37
-50 -68 -24 -31 -40 -59 -37 -63 17 -17 43 -1 81 49 l41 56 41 -56 c25 -34 48
-55 60 -55 29 0 25 11 -25 79 -25 34 -45 63 -45 66 0 3 18 31 41 61 22 31 38
58 35 61 -13 13 -53 -10 -74 -42 -12 -19 -26 -35 -31 -35 -6 0 -22 18 -38 40
-26 37 -63 54 -63 29z"/>
<path d="M3012 1628 c3 -113 5 -133 19 -136 10 -2 28 16 50 49 36 57 29 59 84
-15 24 -32 67 -39 73 -13 2 12 -3 20 -15 23 -10 3 -32 25 -50 50 l-31 46 39
55 c45 64 47 76 18 71 -14 -2 -43 -35 -85 -96 l-63 -94 -3 94 c-3 80 -6 93
-21 96 -16 3 -17 -6 -15 -130z"/>
<path d="M1241 1654 c-23 -19 -31 -34 -31 -59 0 -68 35 -105 101 -105 95 0
143 97 80 161 -40 40 -105 41 -150 3z m121 -31 c39 -35 9 -93 -48 -93 -18 0
-40 7 -48 16 -22 21 -20 70 2 83 26 16 73 13 94 -6z"/>
<path d="M1826 1668 c-3 -7 -4 -49 -3 -93 2 -73 4 -80 22 -80 19 0 20 7 20 90
0 78 -2 90 -18 93 -9 2 -19 -2 -21 -10z"/>
<path d="M2234 1667 c-3 -8 -4 -49 -2 -93 2 -62 6 -79 18 -79 10 0 16 12 18
38 l3 38 47 -3 c46 -3 47 -4 50 -41 2 -24 8 -37 18 -37 11 0 14 19 14 95 0 78
-3 95 -15 95 -10 0 -15 -10 -15 -27 0 -33 -10 -49 -27 -47 -7 1 -26 2 -43 3
-27 1 -30 4 -30 36 0 25 -4 35 -15 35 -9 0 -18 -6 -21 -13z"/>
<path d="M2532 1668 c1 -7 -15 -48 -37 -90 -22 -42 -37 -80 -33 -84 4 -3 25 1
48 10 51 20 94 21 110 1 15 -18 43 -20 38 -2 -2 6 -22 49 -46 95 -32 62 -47
82 -63 82 -11 0 -19 -6 -17 -12z m45 -83 c10 -23 9 -26 -13 -31 -33 -8 -37 -2
-23 30 15 32 21 33 36 1z"/>
<path d="M2701 1663 c0 -10 12 -52 27 -93 24 -66 30 -75 52 -75 18 0 26 6 28
23 2 12 7 22 10 22 4 0 12 -10 17 -22 6 -15 19 -23 34 -23 20 0 28 11 52 70
33 83 37 118 12 113 -12 -2 -26 -25 -39 -62 -23 -65 -24 -65 -48 12 -13 37
-23 52 -35 52 -14 0 -18 -8 -17 -42 0 -24 -3 -52 -8 -63 -6 -17 -12 -10 -30
40 -22 58 -57 89 -55 48z"/>
<path d="M318 950 c74 -130 227 -315 367 -441 52 -47 195 -153 195 -145 0 3
-33 29 -73 59 -159 119 -319 289 -442 472 -80 118 -89 129 -47 55z"/>
<path d="M1395 106 c22 -7 56 -16 75 -19 33 -6 33 -6 -5 7 -22 7 -56 16 -75
19 -33 6 -33 6 5 -7z"/>
<path d="M1828 33 c7 -3 16 -2 19 1 4 3 -2 6 -13 5 -11 0 -14 -3 -6 -6z"/>
<path d="M1873 33 c9 -2 25 -2 35 0 9 3 1 5 -18 5 -19 0 -27 -2 -17 -5z"/>
<path d="M1998 13 c12 -2 30 -2 40 0 9 3 -1 5 -23 4 -22 0 -30 -2 -17 -4z"/>
<path d="M2068 13 c7 -3 16 -2 19 1 4 3 -2 6 -13 5 -11 0 -14 -3 -6 -6z"/>
</g>
</svg>
